<svg version="1.0" xmlns="http://www.w3.org/2000/svg" width="400.000000ptpx" height="400.000000ptpx" viewBox="0 0 400.000000 400.000000" preserveAspectRatio="xMidYMid meet" transform="rotate(0) scale(1, 1)">

<g transform="translate(0.000000,400.000000) scale(0.100000,-0.100000)" fill="#ffffff" stroke="none">
<path d="M3140 3901 c0 -5 -8 -12 -17 -14 -17 -4 -17 -5 0 -6 14 -1 17 -11 17&#10;-71 0 -68 -1 -70 -25 -70 -14 0 -25 -4 -25 -10 0 -5 11 -10 25 -10 23 0 25 -4&#10;25 -40 0 -29 -4 -40 -15 -40 -9 0 -15 -9 -15 -25 l0 -25 -120 0 -120 0 0 -35&#10;0 -35 120 0 120 0 0 -45 c0 -33 -4 -45 -15 -45 -8 0 -15 -7 -15 -15 0 -11 -12&#10;-15 -50 -15 -38 0 -50 4 -50 15 0 8 -7 15 -15 15 -12 0 -15 -13 -15 -60 0 -47&#10;3 -60 15 -60 9 0 15 9 15 25 0 23 3 25 50 25 47 0 50 -2 50 -25 0 -16 6 -25&#10;15 -25 12 0 15 -15 15 -75 0 -60 -3 -75 -15 -75 -10 0 -15 -11 -15 -35 l0 -35&#10;-69 0 -70 0 -4 38 -4 37 -1 -37 -2 -38 -115 0 -115 0 0 205 c0 176 -2 205 -15&#10;205 -13 0 -15 -33 -15 -240 0 -233 1 -240 20 -240 18 0 20 -7 20 -60 l0 -60&#10;-60 0 -60 0 0 -40 0 -40 40 0 40 0 0 -60 0 -60 -40 0 -40 0 0 -176 0 -176 30&#10;-57 c63 -118 160 -211 305 -293 49 -28 107 -65 128 -82 33 -27 47 -31 96 -31&#10;51 0 64 5 126 47 39 25 103 65 142 87 94 54 181 135 240 224 l48 72 3 193 3&#10;192 -35 0 -36 0 0 60 0 60 40 0 40 0 0 40 0 40 -65 0 -65 0 0 60 c0 57 1 60&#10;25 60 l25 0 0 240 c0 207 -2 240 -15 240 -13 0 -15 -29 -15 -205 l0 -205 -115&#10;0 -115 0 0 30 c0 17 -4 30 -10 30 -5 0 -10 -13 -10 -30 l0 -30 -65 0 -65 0 0&#10;35 c0 24 -5 35 -15 35 -12 0 -15 15 -15 75 0 60 3 75 15 75 9 0 15 9 15 25 0&#10;23 3 25 50 25 47 0 50 -2 50 -25 0 -16 6 -25 15 -25 12 0 15 13 15 60 0 47 -3&#10;60 -15 60 -8 0 -15 -7 -15 -15 0 -11 -12 -15 -50 -15 -38 0 -50 4 -50 15 0 8&#10;-7 15 -15 15 -11 0 -15 12 -15 45 l0 45 120 0 120 0 0 35 0 35 -120 0 -120 0&#10;0 25 c0 16 -6 25 -15 25 -11 0 -15 11 -15 40 0 36 3 40 25 40 14 0 25 5 25 10&#10;0 6 -11 10 -25 10 -24 0 -25 2 -25 69 0 58 3 70 18 74 16 4 16 5 0 6 -10 0&#10;-18 6 -18 11 0 6 -7 10 -15 10 -8 0 -15 -4 -15 -9z m428 -943 l3 -58 -203 -1&#10;-203 0 175 -65 c249 -92 265 -99 268 -117 2 -9 -2 -17 -10 -17 -7 0 -107 35&#10;-223 78 l-210 79 -3 -259 -2 -258 -250 0 c-315 0 -290 -17 -290 190 l0 150 37&#10;0 c20 0 44 6 52 13 9 8 88 40 176 72 88 32 184 66 213 77 36 14 52 25 52 37 0&#10;16 -31 7 -217 -60 -119 -44 -220 -79 -225 -79 -4 0 -8 16 -8 35 0 28 4 35 20&#10;35 19 0 20 7 20 98 0 54 3 102 7 105 4 4 189 6 412 5 l406 -3 3 -57z"/>
<path d="M2770 2955 l0 -35 50 0 50 0 0 35 0 35 -50 0 -50 0 0 -35z"/>
<path d="M2900 2955 l0 -35 55 0 55 0 0 35 0 35 -55 0 -55 0 0 -35z"/>
<path d="M3040 2955 l0 -35 50 0 50 0 0 35 0 35 -50 0 -50 0 0 -35z"/>
<path d="M3172 2958 c3 -32 4 -33 56 -36 l52 -3 0 35 0 36 -56 0 -55 0 3 -32z"/>
<path d="M3310 2955 l0 -35 50 0 50 0 0 35 0 35 -50 0 -50 0 0 -35z"/>
<path d="M3440 2955 l0 -35 50 0 50 0 0 35 0 35 -50 0 -50 0 0 -35z"/>
<path d="M2943 2703 c-7 -3 -13 -13 -13 -24 0 -10 -7 -19 -15 -19 -8 0 -15 -4&#10;-15 -10 0 -5 7 -10 15 -10 12 0 15 -17 15 -95 0 -107 -4 -111 -64 -70 -33 22&#10;-35 23 -26 5 6 -11 32 -31 58 -43 44 -21 51 -22 82 -9 40 16 67 38 82 67 8 16&#10;5 15 -18 -6 -16 -15 -39 -30 -51 -34 -23 -6 -23 -5 -23 89 0 79 3 96 15 96 8&#10;0 15 5 15 10 0 6 -7 10 -15 10 -8 0 -15 9 -15 19 0 22 -9 30 -27 24z"/>
<path d="M1465 2738 c-11 -6 -274 -215 -585 -462 -311 -248 -595 -475 -631&#10;-504 -80 -62 -100 -91 -101 -141 -1 -68 45 -124 107 -131 64 -7 74 0 632 443&#10;307 244 569 451 583 460 39 27 83 21 132 -16 24 -18 234 -186 468 -372 234&#10;-186 472 -376 530 -422 58 -46 119 -87 135 -91 47 -13 96 3 133 42 26 29 32&#10;44 32 78 0 24 -8 55 -18 70 -9 15 -132 119 -272 230 -141 112 -430 342 -644&#10;512 -368 293 -390 309 -435 313 -25 2 -55 -2 -66 -9z"/>
<path d="M1466 2078 c-31 -18 -1238 -977 -1274 -1012 -85 -83 -41 -212 75&#10;-223 41 -4 54 -1 89 25 23 17 286 224 584 461 522 415 544 431 585 431 41 0&#10;63 -16 551 -403 280 -221 541 -427 581 -458 80 -63 125 -76 191 -56 31 9 162&#10;111 496 385 251 205 464 384 475 399 66 83 5 203 -102 203 -21 0 -48 -5 -60&#10;-12 -12 -6 -195 -154 -407 -328 -213 -175 -396 -323 -408 -329 -27 -14 -67&#10;-14 -95 1 -12 6 -274 213 -583 459 -309 246 -571 452 -582 458 -26 14 -91 14&#10;-116 -1z"/>
<path d="M271 589 c-58 -11 -110 -53 -141 -115 -20 -40 -25 -64 -25 -129 0&#10;-106 29 -166 100 -210 90 -56 219 -35 270 44 41 64 41 76 -4 89 -51 16 -49 17&#10;-65 -22 -30 -71 -116 -84 -172 -25 -26 28 -29 37 -32 113 -4 92 9 133 53 162&#10;50 33 135 12 150 -37 6 -19 12 -20 49 -15 22 4 44 10 48 14 4 4 -3 25 -15 47&#10;-38 67 -124 101 -216 84z"/>
<path d="M755 590 c-77 -12 -137 -61 -165 -135 -17 -45 -14 -175 5 -221 25&#10;-60 72 -103 134 -121 176 -51 315 73 298 263 -12 129 -77 199 -202 216 -16 3&#10;-48 2 -70 -2z m122 -99 c57 -30 73 -191 25 -258 -26 -37 -85 -59 -128 -49 -46&#10;12 -91 66 -99 119 -24 161 77 255 202 188z"/>
<path d="M2121 589 c-58 -11 -110 -53 -140 -114 -21 -40 -25 -63 -24 -129 1&#10;-158 74 -240 213 -241 75 0 126 25 158 78 38 62 37 72 -9 86 -22 7 -42 11 -44&#10;9 -1 -2 -10 -18 -19 -35 -32 -64 -117 -80 -164 -30 -30 32 -42 71 -42 138 0&#10;105 40 161 115 161 41 0 85 -25 92 -53 6 -20 28 -23 73 -10 31 9 29 32 -7 80&#10;-40 52 -117 75 -202 60z"/>
<path d="M1080 550 l0 -40 70 0 70 0 0 -200 0 -200 50 0 50 0 0 200 0 200 71&#10;0 70 0 -3 38 -3 37 -187 3 -188 2 0 -40z"/>
<path d="M1520 350 l0 -240 180 0 180 0 0 40 0 40 -130 0 -130 0 0 65 0 65&#10;115 0 115 0 0 40 0 40 -115 0 -115 0 0 55 0 55 125 0 125 0 0 40 0 40 -175 0&#10;-175 0 0 -240z"/>
<path d="M2450 350 l0 -240 40 0 40 0 2 183 3 182 46 -180 45 -180 46 -3 46&#10;-3 45 183 45 183 1 -182 1 -183 45 0 45 0 0 240 0 241 -72 -3 -71 -3 -41 -157&#10;c-22 -87 -43 -155 -47 -150 -3 4 -23 76 -45 160 l-38 152 -68 0 -68 0 0 -240z"/>
<path d="M3093 478 c-24 -62 -65 -171 -92 -241 l-50 -128 51 3 50 3 20 53 20&#10;53 95 -3 95 -3 20 -52 19 -53 50 0 c27 0 49 1 49 3 0 1 -42 108 -93 237 l-92&#10;235 -50 3 -50 3 -42 -113z m126 -96 l30 -82 -64 0 c-36 0 -65 2 -65 4 0 2 11&#10;35 25 72 14 38 28 75 31 83 7 20 9 15 43 -77z"/>
<path d="M3480 350 l0 -240 45 0 45 0 0 100 0 100 35 0 c43 0 62 -19 132 -125&#10;l48 -75 53 0 c28 0 52 3 52 7 0 17 -94 155 -121 177 -27 23 -28 27 -12 32 76&#10;24 106 66 100 137 -9 101 -56 125 -254 126 l-123 1 0 -240z m258 144 c25 -18&#10;31 -74 8 -93 -7 -6 -50 -14 -95 -18 l-81 -6 0 67 0 66 73 0 c49 0 80 -5 95&#10;-16z"/>
</g>
</svg>