<?xml version="1.0" standalone="no"?>
<!DOCTYPE svg PUBLIC "-//W3C//DTD SVG 20010904//EN"
 "http://www.w3.org/TR/2001/REC-SVG-20010904/DTD/svg10.dtd">
<svg version="1.0" xmlns="http://www.w3.org/2000/svg"
 width="592.000000pt" height="592.000000pt" viewBox="0 0 592.000000 592.000000"
 preserveAspectRatio="xMidYMid meet">

<g transform="translate(0.000000,592.000000) scale(0.100000,-0.100000)"
fill="#000000" stroke="none">
<path d="M2875 5672 c-89 -31 -148 -72 -250 -176 -55 -56 -111 -109 -125 -117
-37 -23 -103 -37 -210 -44 -187 -13 -266 -37 -337 -103 -75 -70 -133 -254
-133 -423 0 -123 -24 -157 -187 -265 -145 -94 -171 -118 -209 -187 -28 -50
-29 -57 -28 -177 1 -95 6 -144 23 -205 51 -187 40 -250 -73 -404 -91 -124
-116 -187 -123 -302 -9 -141 12 -194 161 -408 78 -111 80 -147 26 -396 -28
-130 -25 -259 9 -323 35 -68 87 -118 185 -179 126 -77 162 -107 194 -161 24
-43 27 -55 25 -135 -4 -162 34 -292 110 -374 80 -87 163 -119 360 -139 184
-18 205 -28 328 -157 81 -85 113 -111 178 -145 105 -53 173 -67 259 -52 131
23 248 99 360 237 63 77 120 101 267 114 197 17 278 45 362 122 86 79 132 212
133 382 1 143 28 183 203 299 114 76 189 156 212 225 23 71 17 222 -15 341
-12 47 -23 116 -23 155 -1 86 20 138 98 239 103 135 142 261 124 396 -12 83
-51 165 -126 267 -106 143 -116 202 -69 408 36 157 35 293 -4 369 -29 57 -97
121 -183 172 -100 60 -167 115 -191 158 -21 36 -24 58 -29 181 -9 251 -69 368
-222 436 -40 18 -78 23 -201 29 -227 11 -234 15 -389 180 -68 72 -152 130
-231 160 -70 26 -188 27 -259 2z m230 -322 c128 -15 224 -43 350 -105 769
-374 1177 -1611 899 -2730 -147 -592 -481 -1072 -886 -1274 -154 -76 -254
-102 -419 -108 -205 -8 -345 23 -523 115 -481 248 -828 841 -938 1607 -17 121
-18 648 0 770 47 329 124 589 252 850 269 550 674 860 1150 884 14 0 66 -4
115 -9z"/>
<path d="M2863 5093 c-23 -59 -41 -109 -39 -110 8 -8 46 13 51 28 9 28 111 28
120 0 4 -13 12 -17 25 -14 11 3 20 7 20 10 0 2 -23 47 -51 99 -33 61 -57 94
-67 94 -12 0 -29 -31 -59 -107z m81 8 c15 -28 15 -29 -14 -33 -17 -3 -30 -1
-30 3 0 10 22 59 26 59 2 0 10 -13 18 -29z"/>
<path d="M2772 5178 c-7 -7 -12 -38 -12 -69 0 -32 -4 -61 -10 -64 -5 -3 -26
19 -46 50 -35 53 -56 66 -69 45 -6 -10 110 -180 123 -180 21 1 30 22 36 85 4
39 9 87 12 108 6 39 -9 50 -34 25z"/>
<path d="M3075 5094 c-9 -52 -15 -98 -11 -101 6 -7 83 -22 114 -23 15 0 22 6
22 20 0 14 -7 20 -22 20 -13 0 -34 3 -47 7 -25 6 -25 7 -5 131 6 38 5 42 -14
42 -17 0 -22 -12 -37 -96z"/>
<path d="M3328 5027 l-46 -94 44 -21 c82 -40 150 -20 174 52 17 54 -6 99 -69
130 -28 15 -52 26 -53 26 -2 0 -24 -42 -50 -93z m102 28 c61 -31 34 -125 -34
-125 -59 0 -64 12 -31 79 16 34 30 61 32 61 2 0 17 -7 33 -15z"/>
<path d="M2515 5094 c-9 -4 -9 -234 0 -234 19 0 35 16 35 36 0 34 73 71 105
54 15 -8 29 -9 40 -3 14 8 2 21 -73 81 -49 40 -91 72 -93 71 -2 0 -8 -2 -14
-5z m82 -101 c2 -5 -8 -15 -22 -21 -24 -11 -25 -10 -25 24 0 35 1 36 22 22 12
-8 23 -19 25 -25z"/>
<path d="M2352 4997 c-8 -9 -2 -24 24 -57 20 -25 31 -46 27 -47 -5 -2 -35 6
-67 17 -43 14 -63 17 -77 9 -10 -5 -19 -12 -19 -16 0 -5 91 -123 121 -157 5
-5 14 -4 24 4 13 11 10 19 -25 63 -22 27 -39 52 -37 53 2 2 37 -7 77 -21 62
-21 76 -23 87 -12 11 11 4 26 -46 89 -69 87 -75 92 -89 75z"/>
<path d="M3532 4930 c-29 -38 -55 -76 -58 -84 -3 -9 12 -27 42 -50 51 -39 59
-42 70 -25 3 6 -10 24 -30 41 -30 25 -34 33 -26 49 14 25 25 24 64 -6 28 -21
35 -23 45 -12 9 11 3 20 -29 42 -38 27 -40 29 -24 46 17 18 18 18 50 -6 37
-28 54 -32 54 -11 0 12 -90 87 -101 85 -2 0 -28 -31 -57 -69z"/>
<path d="M2846 4864 c-71 -17 -205 -80 -268 -125 -216 -157 -396 -427 -503
-752 -82 -250 -117 -485 -118 -777 0 -211 11 -329 48 -515 87 -435 291 -808
548 -1000 70 -54 220 -128 290 -144 377 -90 748 143 987 619 224 447 287 1058
165 1605 -127 568 -446 989 -823 1086 -90 23 -238 24 -326 3z m-353 -494 c36
-11 92 -38 125 -60 82 -55 193 -175 228 -246 25 -51 29 -71 29 -142 l0 -84
-37 -34 c-51 -46 -88 -46 -135 1 -41 41 -67 44 -89 10 -34 -52 7 -111 103
-150 38 -15 96 -30 131 -33 55 -4 61 -7 50 -21 -10 -12 -8 -12 8 2 25 21 181
25 203 5 8 -7 11 -8 8 -2 -4 8 14 13 56 16 34 3 92 18 130 33 96 39 137 98
103 150 -23 34 -51 31 -90 -10 -53 -55 -127 -40 -162 34 -26 53 -15 163 22
231 38 71 153 193 229 242 73 48 176 80 240 76 51 -3 78 -28 30 -28 l-26 0 7
-955 c5 -693 4 -955 -4 -955 -17 0 -42 42 -42 72 0 17 -7 31 -20 38 -25 13
-50 61 -50 95 0 14 -4 25 -9 25 -21 0 -61 54 -61 83 0 18 -11 42 -30 64 -28
31 -30 39 -30 111 0 76 -1 78 -31 96 -33 19 -63 75 -53 99 3 8 -6 26 -20 40
-14 15 -26 37 -26 51 0 46 -45 130 -91 170 l-44 37 -8 -35 c-5 -21 -15 -36
-23 -36 -12 0 -12 -3 0 -23 25 -37 48 -144 41 -187 -8 -47 -28 -68 -49 -50
-13 10 -13 7 -3 -19 9 -25 8 -37 -6 -67 -10 -20 -27 -38 -37 -41 -11 -3 -20
-13 -19 -22 0 -10 2 -11 6 -3 2 6 11 12 18 12 7 0 16 7 19 16 3 8 10 12 16 9
5 -3 7 0 4 8 -12 32 16 25 45 -12 31 -39 41 -90 19 -92 -7 -1 5 -5 27 -8 22
-3 43 -3 46 2 3 4 19 1 35 -8 16 -8 45 -15 65 -15 39 0 65 -21 56 -44 -6 -15
-145 -28 -154 -13 -2 4 -24 7 -49 7 -28 0 -44 4 -45 13 0 6 -4 3 -8 -7 -5 -13
-1 -26 12 -39 15 -15 18 -28 14 -60 -3 -23 -11 -43 -16 -45 -15 -5 -13 -33 4
-56 18 -24 19 -68 3 -113 -10 -27 -10 -38 0 -53 17 -28 15 -105 -3 -120 -19
-16 -19 -44 1 -60 24 -21 9 -89 -28 -123 -23 -21 -29 -33 -24 -52 5 -18 -2
-34 -26 -62 -17 -21 -26 -32 -18 -25 12 10 18 5 35 -30 26 -53 61 -79 118 -85
78 -9 202 63 250 146 l18 31 -25 10 c-14 5 -26 13 -26 18 0 11 87 76 137 101
58 29 73 27 73 -7 0 -54 -61 -202 -83 -202 -5 0 -11 9 -14 20 -8 30 -16 25
-57 -34 -61 -89 -199 -184 -316 -216 -25 -7 -62 -26 -83 -42 l-37 -29 -33 24
c-17 13 -54 30 -82 36 -141 35 -245 98 -372 226 -60 61 -61 62 -72 39 -6 -13
-15 -24 -21 -24 -15 0 -57 93 -71 158 -18 78 -5 86 74 44 113 -58 158 -112 94
-112 -18 0 -15 -7 26 -48 89 -90 219 -152 252 -119 8 9 15 24 15 35 0 26 65
83 85 76 17 -7 48 14 40 27 -8 12 -8 490 0 621 l8 115 -77 13 c-56 9 -86 10
-111 3 -19 -6 -36 -8 -39 -6 -3 3 -36 6 -73 7 -62 1 -68 3 -71 23 -4 24 2 26
88 38 24 3 49 10 56 16 7 6 15 6 18 1 3 -5 19 -7 36 -4 23 3 30 9 30 26 0 22
62 130 71 122 2 -2 4 8 4 22 1 15 5 38 9 52 l9 25 -23 -20 c-21 -19 -22 -19
-36 0 -32 44 -6 201 43 258 17 20 17 21 0 8 -20 -16 -28 -11 -42 31 l-11 30
-51 -46 c-51 -46 -83 -109 -83 -163 0 -13 -11 -35 -25 -49 -17 -17 -25 -36
-25 -60 0 -27 -8 -43 -31 -65 -17 -16 -35 -29 -40 -29 -5 0 -9 -36 -9 -80 0
-74 -2 -82 -30 -113 -19 -22 -30 -46 -30 -64 0 -28 -40 -83 -60 -83 -4 0 -10
-19 -13 -42 -4 -32 -14 -50 -36 -69 -19 -16 -31 -35 -31 -50 0 -28 -25 -69
-42 -69 -8 0 -10 262 -7 953 l4 952 -22 3 c-23 3 -29 13 -16 25 13 14 103 6
166 -13z m571 -625 c-3 -27 -7 -55 -9 -62 -2 -7 0 -15 6 -18 22 -14 -6 -25
-62 -25 -61 0 -77 13 -36 30 12 5 16 9 10 9 -7 1 -13 7 -13 15 0 9 -15 16 -42
19 -64 7 -82 13 -86 25 -2 8 13 12 47 12 29 0 51 5 51 11 0 5 -4 7 -10 4 -5
-3 -10 3 -10 15 0 19 5 20 80 18 l80 -2 -6 -51z m376 -1065 l75 -70 -26 -25
-25 -25 -77 71 -78 72 22 23 c12 13 25 24 28 24 3 -1 40 -32 81 -70z m-609 -8
l72 -68 -19 -22 c-10 -12 -22 -22 -27 -22 -5 0 -42 30 -83 67 l-74 67 22 23
c12 13 25 23 29 23 4 0 40 -31 80 -68z m-141 -229 l0 -237 -50 49 c-31 30 -46
51 -38 54 24 8 28 26 28 136 0 112 -4 128 -29 137 -10 3 0 18 35 51 27 26 50
47 52 47 1 0 2 -107 2 -237z m610 -28 c0 -146 -4 -265 -8 -265 -4 0 -29 22
-56 49 -43 44 -46 49 -27 54 20 5 21 12 21 162 0 150 -1 157 -21 162 -19 5
-16 10 27 54 27 27 52 49 56 49 4 0 8 -119 8 -265z m87 195 l60 -55 5 -144 c4
-118 7 -146 21 -156 14 -10 11 -17 -31 -58 -26 -26 -51 -47 -55 -47 -4 0 -7
82 -7 183 l0 183 -35 31 c-31 27 -35 37 -35 78 0 26 4 45 8 43 5 -1 36 -28 69
-58z m-627 -50 c0 -47 -4 -60 -25 -80 l-25 -23 0 103 0 103 25 -23 c21 -20 25
-33 25 -80z m38 -167 l-32 -33 -33 32 -33 32 32 33 32 33 33 -32 33 -32 -32
-33z m-40 -146 l-3 -97 -22 15 c-21 15 -23 24 -23 123 l0 107 25 -26 c25 -24
26 -30 23 -122z m87 -29 c-32 -35 -62 -64 -67 -66 -4 -2 -8 16 -8 41 0 38 6
51 42 91 l41 48 25 -26 25 -25 -58 -63z"/>
<path d="M2430 4318 c0 -22 11 -29 26 -17 22 18 150 -56 218 -126 76 -78 105
-122 114 -174 7 -44 28 -57 25 -16 -6 82 -131 237 -245 303 -65 38 -138 54
-138 30z"/>
<path d="M3465 4298 c-90 -48 -204 -167 -239 -250 -16 -37 -26 -74 -22 -83 9
-23 26 -8 26 22 0 78 126 222 249 287 54 28 75 35 81 26 9 -15 30 -4 30 16 0
24 -61 16 -125 -18z"/>
<path d="M2487 3761 c-4 -18 -7 -216 -7 -438 0 -380 1 -404 18 -401 16 3 17
29 18 358 1 297 3 355 15 355 12 0 15 -50 19 -289 4 -253 7 -287 19 -272 12
14 14 61 12 262 -1 135 1 244 6 244 28 0 33 -29 33 -202 0 -110 4 -178 10
-178 16 0 20 36 23 189 2 144 6 160 37 141 11 -7 16 -35 18 -120 4 -131 22
-139 22 -9 0 77 3 90 19 101 18 11 12 15 -52 46 -98 48 -168 119 -188 192
l-15 55 -7 -34z"/>
<path d="M3511 3740 c-19 -73 -90 -145 -188 -191 -55 -25 -68 -35 -58 -43 8
-7 15 -42 17 -99 3 -48 10 -93 16 -99 9 -9 12 12 12 93 0 111 4 125 35 131 19
3 20 -4 25 -161 4 -117 9 -166 17 -168 10 -4 13 40 15 184 3 176 4 188 22 191
19 4 19 -3 13 -232 -4 -140 -2 -247 3 -261 24 -63 30 -17 32 262 2 222 6 287
16 291 10 3 12 -66 12 -348 -1 -328 3 -390 25 -368 3 3 4 200 3 439 -3 395 -4
429 -17 379z"/>
<path d="M2875 3579 c-4 -6 -5 -12 -2 -15 2 -3 7 2 10 11 7 17 1 20 -8 4z"/>
<path d="M2861 3534 c0 -11 3 -14 6 -6 3 7 2 16 -1 19 -3 4 -6 -2 -5 -13z"/>
<path d="M3153 3495 c0 -27 2 -38 4 -22 2 15 2 37 0 50 -2 12 -4 0 -4 -28z"/>
<path d="M2962 3158 c-7 -7 -12 -16 -12 -21 0 -5 7 -2 15 6 9 9 30 14 55 13
22 -1 40 1 40 6 0 13 -85 9 -98 -4z"/>
<path d="M3050 3056 c0 -2 8 -10 18 -17 15 -13 16 -12 3 4 -13 16 -21 21 -21
13z"/>
<path d="M2930 3003 c1 -14 27 -43 38 -43 6 0 13 -17 15 -37 l4 -38 1 43 c1
23 -2 42 -8 42 -5 0 -19 9 -30 20 -11 11 -20 17 -20 13z"/>
<path d="M3080 2945 c0 -5 5 -17 10 -25 5 -8 10 -10 10 -5 0 6 -5 17 -10 25
-5 8 -10 11 -10 5z"/>
<path d="M3135 2880 c3 -5 8 -10 11 -10 2 0 4 5 4 10 0 6 -5 10 -11 10 -5 0
-7 -4 -4 -10z"/>
<path d="M3037 2782 c9 -6 16 -68 22 -202 5 -107 8 -197 5 -201 -2 -4 0 -10 6
-14 13 -8 13 -55 -1 -55 -6 0 -8 -9 -3 -22 4 -13 6 -54 5 -93 -1 -47 2 -65 8
-55 5 8 7 26 4 42 -3 15 3 49 13 77 14 41 15 55 6 76 -17 36 -15 91 3 109 8 8
15 23 15 34 0 11 -7 22 -15 26 -18 7 -21 87 -4 118 8 15 8 26 -1 43 -7 12 -10
46 -9 74 l4 51 -35 0 c-21 0 -30 -3 -23 -8z"/>
<path d="M3110 2732 c0 -19 5 -29 15 -29 10 0 15 10 15 29 0 18 -5 28 -15 28
-10 0 -15 -10 -15 -28z"/>
<path d="M3110 2564 c0 -18 5 -24 21 -24 15 0 20 5 17 22 -4 31 -38 33 -38 2z"/>
<path d="M3114 2405 c-9 -21 3 -45 21 -45 10 0 15 10 15 30 0 32 -26 43 -36
15z"/>
<path d="M3023 2323 c-17 -3 -23 -11 -23 -29 0 -21 4 -25 23 -22 16 2 22 10
23 31 1 15 1 26 0 26 -1 -1 -11 -4 -23 -6z m17 -28 c0 -8 -7 -15 -15 -15 -8 0
-15 7 -15 15 0 8 7 15 15 15 8 0 15 -7 15 -15z"/>
<path d="M3105 2223 c-9 -25 -6 -33 15 -33 14 0 20 7 20 23 0 26 -26 33 -35
10z"/>
<path d="M3034 2065 c-4 -14 -3 -29 1 -33 9 -9 47 37 39 49 -11 18 -34 8 -40
-16z"/>
<path d="M2903 1974 c-9 -23 11 -38 26 -20 13 16 7 36 -10 36 -5 0 -12 -7 -16
-16z"/>
<path d="M2940 1935 c-13 -14 -33 -25 -44 -26 -12 0 -15 -3 -8 -6 22 -9 61 6
73 28 16 31 6 32 -21 4z"/>
<path d="M3722 4755 c-38 -32 -48 -72 -29 -116 17 -41 43 -64 80 -73 40 -9 38
27 -3 44 -69 28 -49 130 25 130 38 0 65 -26 65 -63 0 -20 5 -27 20 -27 32 0
26 52 -11 95 -27 30 -37 35 -74 35 -32 0 -52 -7 -73 -25z"/>
<path d="M2065 4709 c-4 -6 16 -55 44 -110 29 -55 46 -96 38 -93 -9 3 -23 -9
-38 -33 -12 -21 -24 -40 -25 -41 -1 -2 -35 15 -74 38 -58 34 -74 39 -81 29
-14 -22 -12 -26 44 -57 28 -16 68 -39 88 -51 l37 -22 46 82 c35 62 43 85 36
99 -7 13 -2 28 20 59 25 34 35 40 54 35 18 -4 27 -1 35 14 9 17 3 20 -93 40
-119 25 -123 26 -131 11z m108 -48 c18 -7 18 -8 -1 -31 l-19 -24 -17 32 c-16
30 -16 32 1 31 10 0 26 -4 36 -8z"/>
<path d="M3860 4555 c-47 -7 -87 -13 -89 -14 -12 -4 25 -31 44 -31 15 0 31
-13 49 -40 22 -33 24 -43 15 -64 -8 -16 -8 -30 -1 -42 8 -15 18 -4 68 72 31
49 58 98 58 109 1 25 -28 27 -144 10z m73 -66 l-20 -31 -17 23 c-9 13 -16 27
-16 31 0 6 60 16 69 11 2 -1 -5 -16 -16 -34z"/>
<path d="M1867 4375 c-15 -31 -27 -58 -27 -60 0 -7 167 -85 180 -85 14 0 62
100 56 116 -10 25 -26 15 -42 -26 -17 -42 -24 -46 -55 -30 -19 11 -19 11 2 52
16 32 18 42 8 49 -18 11 -26 4 -39 -36 -8 -23 -18 -35 -30 -35 -28 0 -32 14
-15 54 18 43 19 56 2 56 -7 0 -25 -25 -40 -55z"/>
<path d="M3982 4379 c-90 -43 -90 -43 -57 -109 47 -93 175 -84 199 13 8 30 5
46 -14 87 -13 27 -28 50 -34 49 -6 0 -48 -18 -94 -40z m102 -25 c13 -34 6 -73
-16 -88 -33 -24 -84 -20 -102 6 -24 34 -20 42 37 70 62 32 73 33 81 12z"/>
<path d="M1810 4241 c0 -15 15 -24 65 -41 76 -25 95 -48 70 -86 -18 -28 -40
-30 -112 -7 -47 15 -56 15 -63 3 -12 -19 -5 -24 54 -44 97 -32 154 -14 171 55
12 48 -17 84 -90 113 -78 31 -95 32 -95 7z"/>
<path d="M4070 4178 c-47 -17 -86 -32 -88 -33 -1 -1 8 -30 20 -63 16 -45 27
-62 40 -62 22 0 22 10 3 57 -8 20 -14 37 -13 38 16 12 48 23 51 18 2 -5 10
-25 17 -46 14 -44 37 -44 32 -1 -8 65 -7 69 12 69 13 0 23 -11 31 -35 11 -32
45 -56 45 -31 0 25 -43 121 -53 120 -7 0 -50 -14 -97 -31z"/>
<path d="M4205 4021 c7 -33 18 -27 -117 -62 -28 -7 -38 -15 -38 -29 0 -24 -2
-24 89 0 80 20 91 19 91 -11 0 -12 7 -19 20 -19 24 0 24 -1 3 83 -14 52 -21
67 -36 67 -15 0 -17 -5 -12 -29z"/>
<path d="M1751 4014 c-33 -41 -29 -108 8 -145 24 -24 38 -29 76 -29 38 0 52 5
76 29 24 25 29 38 29 79 0 29 -6 54 -13 61 -22 18 -35 -6 -30 -53 5 -37 2 -46
-18 -60 -29 -20 -58 -20 -87 0 -29 20 -30 77 -2 101 14 13 17 20 8 30 -15 19
-24 16 -47 -13z"/>
<path d="M4195 3854 c-128 -25 -118 -18 -111 -75 9 -64 15 -79 33 -79 12 0 14
9 8 49 -6 46 -5 49 19 53 22 4 27 1 32 -21 12 -53 16 -61 30 -61 12 0 13 10 8
50 -6 49 -6 50 20 50 20 0 26 -5 26 -22 0 -40 12 -68 27 -68 12 0 14 9 8 48
-9 66 -16 92 -24 91 -3 0 -37 -7 -76 -15z"/>
<path d="M1712 3807 c-22 -26 -26 -75 -8 -102 27 -41 73 -31 109 23 26 39 31
42 45 29 13 -13 13 -20 2 -47 -9 -22 -10 -34 -2 -42 15 -15 29 -3 42 38 15 45
7 77 -24 93 -33 18 -60 7 -90 -39 -14 -22 -31 -40 -36 -40 -17 0 -24 31 -12
50 15 25 -8 59 -26 37z"/>
<path d="M4220 3670 c-11 -11 -23 -34 -27 -51 -7 -37 -21 -46 -41 -26 -13 13
-13 21 -4 41 10 22 9 27 -7 36 -16 8 -21 5 -29 -19 -19 -55 10 -111 58 -111
33 0 45 13 62 66 16 49 43 53 44 6 0 -40 20 -64 34 -42 17 26 11 79 -10 100
-26 26 -55 25 -80 0z"/>
<path d="M1680 3582 l0 -69 77 -7 c42 -3 89 -6 105 -6 l28 0 0 70 c0 53 -3 70
-14 70 -9 0 -16 -17 -21 -50 -6 -44 -10 -50 -31 -50 -22 0 -24 4 -24 50 0 66
-25 70 -34 5 -6 -39 -11 -45 -31 -45 -21 0 -23 4 -22 47 2 38 -2 48 -15 51
-16 3 -18 -5 -18 -66z"/>
<path d="M1802 2358 c2 -16 11 -24 30 -26 22 -3 30 -11 43 -53 16 -46 16 -52
1 -68 -11 -12 -14 -25 -9 -40 8 -19 16 -13 95 67 61 60 85 91 79 100 -6 10
-179 40 -239 42 -2 0 -2 -10 0 -22z m168 -46 c0 -5 -11 -19 -25 -32 l-24 -23
-11 27 c-14 37 -14 36 25 36 19 0 35 -4 35 -8z"/>
<path d="M4071 2326 c-132 -16 -134 -23 -32 -122 46 -43 86 -80 91 -82 15 -6
17 33 2 51 -14 15 -14 23 -1 65 10 32 21 48 34 50 20 4 45 28 45 44 0 9 -14 9
-139 -6z m21 -85 l-8 -22 -27 21 c-35 28 -34 38 6 42 35 3 42 -6 29 -41z"/>
<path d="M1995 2169 c-49 -22 -93 -43 -97 -47 -5 -5 5 -38 22 -75 22 -49 34
-65 45 -61 19 8 19 31 0 64 -8 14 -14 30 -15 36 0 6 34 27 75 45 41 19 75 39
75 44 -1 32 -18 31 -105 -6z"/>
<path d="M4063 2065 c-10 -25 -21 -45 -25 -45 -4 0 -41 15 -82 34 -74 34 -76
34 -86 15 -10 -18 -3 -24 85 -64 53 -25 99 -45 101 -45 3 0 19 30 36 66 25 54
28 68 17 75 -23 14 -26 11 -46 -36z"/>
<path d="M2067 2006 c-92 -51 -100 -57 -91 -80 6 -15 12 -13 61 14 30 17 57
29 60 27 2 -3 -7 -24 -22 -47 -15 -23 -25 -43 -23 -44 2 -2 28 -7 58 -12 l55
-9 -52 -29 c-54 -30 -57 -34 -47 -59 4 -11 24 -4 91 33 100 57 106 61 97 83
-4 11 -18 17 -39 17 -18 0 -47 3 -64 6 l-31 7 29 51 c22 38 27 55 20 69 -6 9
-13 17 -17 17 -4 0 -42 -20 -85 -44z"/>
<path d="M3792 1928 c-7 -7 -12 -15 -12 -19 0 -11 179 -111 189 -105 16 11 72
117 66 126 -12 20 -32 9 -54 -30 -12 -22 -26 -40 -31 -40 -6 0 -39 18 -75 40
-75 46 -68 43 -83 28z"/>
<path d="M3742 1857 c-9 -10 7 -26 71 -72 87 -62 109 -70 115 -44 2 11 -23 35
-76 73 -86 60 -94 63 -110 43z"/>
<path d="M2200 1778 c-47 -32 -85 -63 -84 -69 4 -41 9 -40 109 32 74 53 84 63
73 78 -7 9 -12 17 -13 17 0 1 -38 -25 -85 -58z"/>
<path d="M3675 1762 c-17 -11 -42 -34 -57 -54 l-26 -34 78 -72 c43 -40 81 -72
84 -72 3 0 24 23 46 51 60 77 53 146 -20 184 -38 20 -69 19 -105 -3z m78 -34
c52 -27 60 -71 23 -115 l-25 -28 -50 50 c-28 27 -51 53 -51 57 0 9 60 48 73
48 5 0 18 -5 30 -12z"/>
<path d="M2245 1704 c-41 -36 -75 -72 -75 -79 0 -27 22 -27 49 -1 15 14 32 26
38 26 23 0 25 -40 3 -76 -16 -28 -18 -39 -9 -50 6 -8 15 -14 18 -14 9 0 41 66
41 84 0 9 7 12 20 9 31 -8 70 23 70 55 0 27 -55 112 -72 112 -4 0 -41 -30 -83
-66z m107 -8 c14 -33 4 -58 -23 -54 -35 5 -47 33 -25 57 25 27 34 26 48 -3z"/>
<path d="M3492 1601 c-12 -7 -11 -27 3 -117 10 -60 21 -113 26 -118 14 -15 39
14 33 38 -7 30 79 95 101 76 16 -13 58 -4 53 12 -3 8 -194 119 -202 118 -1 0
-7 -4 -14 -9z m83 -113 c-15 -11 -28 -19 -30 -17 -2 2 -6 21 -10 42 l-7 38 36
-22 36 -21 -25 -20z"/>
<path d="M2405 1538 c-55 -28 -102 -52 -104 -54 -3 -3 2 -12 11 -20 13 -13 20
-14 38 -4 19 10 28 8 64 -18 31 -23 40 -36 38 -55 -1 -13 6 -31 17 -41 19 -17
20 -17 27 21 3 21 14 75 24 120 13 58 15 84 7 92 -15 15 -9 17 -122 -41z m74
-35 c0 -10 -4 -26 -7 -36 -7 -16 -9 -16 -30 -2 -28 20 -28 29 1 43 31 15 37
14 36 -5z"/>
<path d="M3328 1509 c-21 -11 -38 -22 -38 -24 0 -3 20 -48 44 -100 36 -76 48
-94 61 -89 16 7 17 27 1 64 -4 10 4 21 24 32 41 23 54 61 35 97 -24 47 -65 53
-127 20z m90 -47 c4 -25 -13 -52 -32 -52 -18 0 -48 67 -33 74 29 12 62 1 65
-22z"/>
<path d="M2617 1503 c-3 -5 -21 -50 -41 -102 -28 -73 -34 -96 -24 -103 21 -13
30 -5 50 52 11 30 24 59 28 63 4 4 15 -29 25 -75 17 -78 26 -98 50 -98 6 0 26
43 45 94 24 65 37 90 43 80 4 -7 19 -14 33 -14 25 0 26 0 19 -67 -3 -38 -8
-78 -11 -90 -4 -19 0 -23 20 -23 23 0 25 4 31 85 l7 85 34 0 c27 0 34 4 34 19
0 16 -11 20 -82 26 -46 4 -93 11 -105 16 -20 7 -24 3 -44 -51 -12 -33 -25 -58
-29 -55 -3 2 -13 36 -20 75 -9 48 -19 74 -31 81 -21 11 -26 11 -32 2z"/>
<path d="M3001 1433 l-33 -4 6 -55 c3 -30 9 -79 12 -109 l6 -56 62 6 c79 8 86
11 86 31 0 14 -8 16 -54 11 -53 -5 -54 -5 -58 23 -4 25 0 29 25 34 16 3 41 6
54 6 19 0 24 4 19 16 -3 9 -6 16 -6 17 0 1 -22 0 -49 -1 -45 -4 -49 -2 -53 22
-5 23 -2 26 26 26 46 0 76 11 76 26 0 14 -40 16 -119 7z"/>
<path d="M1185 753 c-27 -2 -54 -8 -59 -13 -5 -5 1 -7 15 -4 18 4 16 1 -10
-14 -57 -32 -119 -102 -183 -207 -114 -186 -151 -225 -212 -225 -23 0 -26 3
-20 24 7 30 -13 44 -34 22 -14 -14 -14 -17 3 -36 23 -26 74 -26 124 -1 44 23
99 82 142 151 29 48 33 50 75 50 l44 0 -19 -38 c-47 -92 -49 -166 -3 -183 33
-13 56 -4 102 37 l37 34 6 -29 c16 -80 155 -33 207 70 21 40 29 46 46 30 5 -5
19 -11 32 -13 23 -3 22 -3 -12 -58 -40 -62 -42 -70 -21 -70 8 0 29 21 46 48
55 80 118 149 152 166 17 8 25 16 17 16 -9 0 -33 -15 -55 -32 -37 -31 -40 -24
-7 15 14 15 13 17 -6 17 -12 0 -29 -12 -39 -26 -36 -51 -54 -65 -81 -62 -20 2
-32 14 -48 43 -14 28 -28 41 -45 43 -21 2 -22 1 -6 -8 24 -15 21 -47 -9 -108
-41 -84 -104 -124 -134 -87 -24 29 37 147 97 187 31 20 15 25 -20 7 -36 -19
-67 -51 -103 -106 -18 -29 -52 -66 -74 -82 -166 -120 -30 251 142 387 43 34
85 42 94 17 7 -18 44 -20 44 -2 0 7 -5 18 -12 25 -44 44 -194 -51 -289 -182
-30 -43 -36 -46 -76 -46 l-44 0 15 28 c52 101 159 202 214 202 12 0 22 5 22
10 0 6 -1 9 -2 8 -2 -1 -25 -3 -53 -5z"/>
<path d="M945 721 c-86 -21 -125 -41 -159 -81 -47 -56 -22 -131 42 -129 27 1
27 1 3 8 -37 10 -47 53 -24 94 34 58 119 98 248 117 l50 8 -45 0 c-25 0 -76
-7 -115 -17z"/>
<path d="M4116 610 c-44 -71 -82 -130 -86 -130 -5 0 -10 7 -14 15 -3 8 -11 15
-17 15 -8 0 -8 -4 1 -15 16 -19 5 -60 -27 -105 -39 -53 -85 -90 -112 -90 -22
0 -23 3 -18 38 6 49 50 117 96 148 20 14 29 24 20 24 -26 0 -98 -58 -127 -102
-39 -59 -100 -118 -122 -118 -38 0 -21 47 56 158 42 60 42 62 20 62 -13 0 -27
-7 -30 -16 -6 -15 -8 -15 -26 1 -10 9 -25 15 -32 12 -8 -4 -7 -6 5 -6 36 -2
13 -88 -38 -143 -25 -27 -33 -44 -16 -33 5 3 11 -5 13 -17 5 -37 52 -36 99 2
33 26 39 28 39 12 0 -47 55 -56 107 -16 19 14 37 23 40 20 4 -3 3 -6 -1 -6 -4
0 -2 -9 4 -20 15 -29 50 -25 100 11 23 17 39 26 35 20 -3 -6 -3 -20 0 -31 10
-31 51 -25 106 15 48 34 49 34 49 12 0 -66 95 -62 177 7 l32 27 -6 -35 c-4
-27 -2 -37 11 -42 25 -10 63 4 98 35 l32 28 15 -31 c17 -33 44 -42 88 -31 33
8 108 78 123 115 13 31 24 37 35 20 3 -6 17 -10 31 -10 31 0 31 -5 -11 -67
-40 -60 -41 -63 -17 -63 11 0 34 25 59 63 54 82 134 157 168 157 14 0 25 -3
25 -6 0 -11 -24 -50 -62 -101 -41 -54 -46 -88 -17 -106 38 -24 117 31 187 131
39 54 18 36 -33 -29 -49 -62 -96 -99 -127 -99 -29 0 -21 33 22 91 43 56 56 89
46 114 -9 25 -60 17 -106 -16 l-43 -31 22 31 c21 29 21 31 4 31 -11 0 -32 -19
-51 -45 -25 -35 -38 -45 -60 -45 -32 0 -52 16 -52 41 0 28 -29 49 -66 49 -48
0 -105 -41 -148 -106 -20 -30 -55 -68 -78 -84 -85 -62 -91 -26 -14 89 30 44
57 85 61 91 3 5 -3 10 -14 10 -14 0 -34 -20 -60 -59 -68 -99 -171 -175 -216
-157 -45 17 9 154 77 196 19 11 26 20 17 20 -26 0 -95 -56 -128 -104 -57 -83
-151 -146 -151 -101 0 9 27 56 60 105 33 49 60 92 60 95 0 3 -8 5 -18 5 -10 0
-35 -26 -61 -64 -53 -79 -117 -145 -148 -152 -57 -15 -43 18 108 248 66 99
119 184 119 189 0 5 -8 9 -18 9 -12 0 -43 -42 -96 -130z m674 -142 c0 -70 -85
-183 -133 -176 -47 7 -29 90 34 162 31 35 48 46 70 46 26 0 29 -3 29 -32z"/>
<path d="M3285 723 c-65 -9 -152 -36 -192 -59 -42 -24 -83 -71 -83 -95 0 -6
10 3 23 22 46 70 214 120 352 104 124 -14 236 -1 220 26 -6 9 -257 11 -320 2z"/>
<path d="M3397 653 c-19 -16 -76 -89 -126 -165 -98 -147 -131 -181 -191 -199
-46 -14 -83 -6 -112 23 -20 20 -20 22 -3 34 21 16 12 47 -12 42 -30 -5 -29
-59 2 -88 22 -20 36 -25 83 -24 107 0 184 63 284 233 34 58 77 120 95 138 41
40 30 43 -20 6z"/>
<path d="M4819 623 c-6 -16 -20 -38 -31 -50 -12 -13 -17 -23 -11 -23 16 0 85
79 78 90 -11 18 -25 10 -36 -17z"/>
<path d="M4256 615 c-3 -9 1 -18 10 -22 19 -7 28 2 21 22 -8 19 -23 19 -31 0z"/>
<path d="M4610 610 c0 -15 5 -20 18 -18 9 2 17 10 17 18 0 8 -8 16 -17 18 -13
2 -18 -3 -18 -18z"/>
<path d="M3259 568 c-3 -22 -1 -34 4 -29 5 5 7 21 5 37 -3 27 -4 26 -9 -8z"/>
<path d="M935 568 c-6 -13 -26 -31 -45 -40 -20 -10 -27 -18 -18 -18 23 0 82
53 77 68 -2 7 -9 2 -14 -10z"/>
<path d="M3010 518 c0 -26 34 -56 73 -63 45 -9 110 10 144 41 l28 25 -40 -25
c-77 -49 -164 -42 -192 14 -9 18 -13 20 -13 8z"/>
<path d="M1687 491 c4 -14 -9 -40 -41 -82 -36 -48 -46 -69 -44 -93 3 -26 8
-31 33 -34 20 -2 42 6 64 23 19 14 31 25 27 25 -4 0 -19 -9 -33 -20 -26 -20
-73 -27 -73 -11 0 5 23 43 51 84 52 77 61 119 27 125 -12 2 -15 -2 -11 -17z"/>
<path d="M1858 485 c-40 -27 -124 -132 -114 -142 3 -4 6 -2 7 3 0 5 6 -7 12
-26 12 -33 14 -35 59 -34 59 0 108 37 150 111 27 48 28 55 16 80 -19 40 -78
44 -130 8z m100 -13 c5 -32 -43 -126 -79 -157 -39 -32 -77 -33 -85 -1 -7 31
30 109 74 153 41 41 85 43 90 5z"/>
<path d="M2110 469 c-27 -43 -62 -59 -92 -40 -11 7 -18 7 -18 1 0 -13 45 -24
65 -16 18 6 19 9 -32 -71 -38 -60 -39 -63 -15 -63 11 0 28 17 42 43 13 23 47
67 74 97 28 30 35 42 17 25 l-34 -30 32 48 c32 46 32 47 9 47 -16 0 -31 -13
-48 -41z"/>
<path d="M2204 488 c-10 -12 -13 -18 -6 -14 8 5 12 0 12 -16 0 -49 49 -64 91
-28 l24 20 -32 -17 c-30 -17 -34 -17 -49 -2 -15 15 -15 19 0 48 16 29 16 31
-2 31 -10 0 -27 -10 -38 -22z"/>
<path d="M2517 423 c-41 -60 -57 -94 -55 -112 5 -46 64 -41 116 9 18 17 32 27
32 24 0 -15 -92 -142 -132 -183 -69 -70 -125 -87 -172 -50 -30 24 -34 63 -9
91 14 15 14 18 1 18 -22 0 -48 -33 -48 -62 0 -13 11 -35 26 -49 21 -19 36 -24
77 -23 70 1 124 31 184 100 26 31 57 67 68 79 11 12 21 26 22 31 2 11 76 136
104 176 23 32 24 38 2 38 -11 0 -35 -26 -58 -61 -49 -74 -137 -159 -164 -159
-12 0 -21 5 -21 10 0 19 31 73 75 130 59 78 60 80 33 80 -18 0 -36 -20 -81
-87z"/>
<path d="M3340 403 c-78 -126 -76 -123 -53 -123 11 1 32 23 53 56 19 31 58 77
85 102 49 46 50 46 53 22 5 -33 20 -50 44 -50 15 0 18 -4 13 -17 -15 -34 -17
-83 -5 -98 17 -20 54 -19 77 3 10 9 14 14 9 10 -6 -5 -21 -8 -34 -8 -23 0 -24
3 -20 43 6 51 41 108 89 143 19 14 27 24 17 24 -16 0 -85 -47 -107 -73 -17
-21 -35 -22 -50 -3 -10 11 -9 21 4 45 15 29 14 31 -2 31 -10 0 -43 -21 -73
-47 -53 -47 -56 -46 -18 9 22 32 23 38 1 38 -12 0 -41 -38 -83 -107z"/>
<path d="M4419 501 c8 -5 11 -16 8 -25 -5 -11 -1 -16 14 -16 32 0 22 44 -11
48 -18 2 -21 0 -11 -7z"/>
<path d="M2809 423 c-13 -16 -12 -17 4 -4 16 13 21 21 13 21 -2 0 -10 -8 -17
-17z"/>
<path d="M2745 359 c-61 -50 -66 -55 -40 -41 22 11 103 81 95 81 -3 0 -27 -18
-55 -40z"/>
</g>
</svg>
